<svg width="16" height="16" viewBox="0 0 16 16" fill="none" xmlns="http://www.w3.org/2000/svg">
<g clip-path="url(#clip0_0_555)">
<path d="M10.3333 1.75308C9.60709 1.48171 8.82086 1.33334 7.99998 1.33334C4.31808 1.33334 1.33331 4.31811 1.33331 8.00001C1.33331 11.6819 4.31808 14.6667 7.99998 14.6667C11.6819 14.6667 14.6666 11.6819 14.6666 8.00001C14.6666 6.78572 14.342 5.64725 13.7748 4.66668" stroke="black" stroke-linecap="round"/>
<path d="M6 10.6667C6.56692 11.0869 7.25638 11.3333 8 11.3333C8.74362 11.3333 9.43308 11.0869 10 10.6667" stroke="black" stroke-linecap="round"/>
<path d="M10.6666 7C10.6666 7.55228 10.3682 8 9.99998 8C9.63179 8 9.33331 7.55228 9.33331 7C9.33331 6.44772 9.63179 6 9.99998 6C10.3682 6 10.6666 6.44772 10.6666 7Z" fill="black"/>
<ellipse cx="5.99998" cy="7" rx="0.666667" ry="1" fill="black"/>
<path d="M13.3334 3.33334H12M12 3.33334L10.6667 3.33334M12 3.33334L12 2M12 3.33334L12 4.66667" stroke="black" stroke-linecap="round"/>
</g>
<defs>
<clipPath id="clip0_0_555">
<rect width="16" height="16" fill="white"/>
</clipPath>
</defs>
</svg>
