<svg width="16" height="16" viewBox="0 0 16 16" fill="none" xmlns="http://www.w3.org/2000/svg">
<g clip-path="url(#clip0_0_548)">
<path d="M11.1013 2.30338L11.5339 1.87084C12.2505 1.15418 13.4125 1.15418 14.1292 1.87084C14.8458 2.5875 14.8458 3.74944 14.1292 4.4661L13.6966 4.89865M11.1013 2.30338C11.1013 2.30338 11.1554 3.22254 11.9664 4.03356C12.7775 4.84458 13.6966 4.89865 13.6966 4.89865M11.1013 2.30338L7.12476 6.27996C6.85542 6.54931 6.72075 6.68398 6.60493 6.83247C6.46831 7.00763 6.35118 7.19715 6.25561 7.39769C6.17459 7.56769 6.11436 7.74837 5.99391 8.10973L5.60826 9.26668M13.6966 4.89865L9.72003 8.87523C9.45068 9.14457 9.31601 9.27924 9.16752 9.39506C8.99236 9.53168 8.80284 9.64881 8.6023 9.74438C8.4323 9.8254 8.25162 9.88563 7.89026 10.0061L6.73331 10.3917M6.73331 10.3917L5.98471 10.6413C5.80688 10.7005 5.61082 10.6543 5.47827 10.5217C5.34573 10.3892 5.29945 10.1931 5.35872 10.0153L5.60826 9.26668M6.73331 10.3917L5.60826 9.26668" stroke="black"/>
<path d="M14.6666 8.00001C14.6666 11.6819 11.6819 14.6667 7.99998 14.6667C4.31808 14.6667 1.33331 11.6819 1.33331 8.00001C1.33331 4.31811 4.31808 1.33334 7.99998 1.33334" stroke="black" stroke-linecap="round"/>
</g>
<defs>
<clipPath id="clip0_0_548">
<rect width="16" height="16" fill="white"/>
</clipPath>
</defs>
</svg>
