<svg width="16" height="16" viewBox="0 0 16 16" fill="none" xmlns="http://www.w3.org/2000/svg">
<path d="M13.6666 4H2.33325" stroke="black" stroke-linecap="round"/>
<path d="M12.5556 5.66666L12.2489 10.2661C12.1309 12.036 12.0719 12.921 11.4953 13.4605C10.9186 14 10.0317 14 8.2578 14H7.74223C5.96836 14 5.08142 14 4.50475 13.4605C3.92808 12.921 3.86908 12.036 3.75109 10.2661L3.44446 5.66666" stroke="black" stroke-linecap="round"/>
<path d="M6.33331 7.33334L6.66665 10.6667" stroke="black" stroke-linecap="round"/>
<path d="M9.66665 7.33334L9.33331 10.6667" stroke="black" stroke-linecap="round"/>
<path d="M4.33331 4C4.37057 4 4.38919 4 4.40608 3.99957C4.95504 3.98566 5.43933 3.63661 5.62612 3.12021C5.63187 3.10433 5.63776 3.08666 5.64954 3.05132L5.71427 2.85714C5.76952 2.69139 5.79715 2.6085 5.83379 2.53813C5.97999 2.25738 6.25048 2.06242 6.56305 2.01251C6.6414 2 6.72876 2 6.90349 2H9.09647C9.2712 2 9.35856 2 9.43691 2.01251C9.74948 2.06242 10.02 2.25738 10.1662 2.53813C10.2028 2.6085 10.2304 2.69138 10.2857 2.85714L10.3504 3.05132C10.3622 3.08661 10.3681 3.10434 10.3738 3.12021C10.5606 3.63661 11.0449 3.98566 11.5939 3.99957C11.6108 4 11.6294 4 11.6666 4" stroke="black"/>
</svg>
